<?xml version="1.0" encoding="UTF-8"?>
<svg xmlns="http://www.w3.org/2000/svg" xmlns:xlink="http://www.w3.org/1999/xlink" width="112.5pt" height="112.499997pt" viewBox="0 0 112.5 112.499997" version="1.2">
<defs>
<clipPath id="clip1">
  <path d="M 24.570312 11.25 L 87.570312 11.25 L 87.570312 101.25 L 24.570312 101.25 Z M 24.570312 11.25 "/>
</clipPath>
</defs>
<g id="surface1">
<g clip-path="url(#clip1)" clip-rule="nonzero">
<path style=" stroke:none;fill-rule:nonzero;fill:rgb(100%,100%,100%);fill-opacity:1;" d="M 79.679688 21.519531 L 67.933594 21.519531 C 67.070312 15.714844 62.078125 11.25 56.070312 11.25 C 50.058594 11.25 45.070312 15.714844 44.203125 21.519531 L 32.457031 21.519531 C 28.121094 21.519531 24.589844 25.070312 24.589844 29.433594 L 24.589844 38.953125 C 24.589844 39.945312 25.390625 40.753906 26.378906 40.753906 L 28.40625 40.753906 L 28.40625 89.140625 C 28.40625 95.816406 33.808594 101.25 40.453125 101.25 L 71.6875 101.25 C 78.328125 101.25 83.730469 95.816406 83.730469 89.140625 L 83.730469 40.753906 L 85.761719 40.753906 C 86.75 40.753906 87.550781 39.945312 87.550781 38.953125 L 87.550781 29.433594 C 87.550781 25.070312 84.019531 21.519531 79.679688 21.519531 Z M 56.070312 14.851562 C 60.097656 14.851562 63.472656 17.710938 64.296875 21.519531 L 47.84375 21.519531 C 48.664062 17.710938 52.039062 14.851562 56.070312 14.851562 Z M 80.152344 89.140625 C 80.152344 93.832031 76.355469 97.648438 71.6875 97.648438 L 40.453125 97.648438 C 35.785156 97.648438 31.988281 93.832031 31.988281 89.140625 L 31.988281 40.753906 L 80.152344 40.753906 Z M 83.96875 37.152344 L 28.171875 37.152344 L 28.171875 29.433594 C 28.171875 27.054688 30.09375 25.117188 32.457031 25.117188 L 79.679688 25.117188 C 82.046875 25.117188 83.96875 27.054688 83.96875 29.433594 Z M 40.40625 85.601562 L 40.40625 47.769531 C 40.40625 46.773438 41.207031 45.96875 42.195312 45.96875 C 43.183594 45.96875 43.984375 46.773438 43.984375 47.769531 L 43.984375 85.601562 C 43.984375 86.597656 43.183594 87.402344 42.195312 87.402344 C 41.207031 87.402344 40.40625 86.597656 40.40625 85.601562 Z M 54.734375 85.601562 L 54.734375 47.769531 C 54.734375 46.773438 55.539062 45.96875 56.527344 45.96875 C 57.511719 45.96875 58.316406 46.773438 58.316406 47.769531 L 58.316406 85.601562 C 58.316406 86.597656 57.511719 87.402344 56.527344 87.402344 C 55.539062 87.402344 54.734375 86.597656 54.734375 85.601562 Z M 69.066406 85.601562 L 69.066406 47.769531 C 69.066406 46.773438 69.871094 45.96875 70.859375 45.96875 C 71.847656 45.96875 72.648438 46.773438 72.648438 47.769531 L 72.648438 85.601562 C 72.648438 86.597656 71.847656 87.402344 70.859375 87.402344 C 69.871094 87.402344 69.066406 86.597656 69.066406 85.601562 Z M 69.066406 85.601562 "/>
</g>
</g>
</svg>
