<?xml version="1.0" encoding="UTF-8"?>
<svg xmlns="http://www.w3.org/2000/svg" xmlns:xlink="http://www.w3.org/1999/xlink" width="112.5pt" height="112.499997pt" viewBox="0 0 112.5 112.499997" version="1.2">
<defs>
<clipPath id="clip1">
  <path d="M 11.25 11.25 L 101.25 11.25 L 101.25 101.25 L 11.25 101.25 Z M 11.25 11.25 "/>
</clipPath>
</defs>
<g id="surface1">
<g clip-path="url(#clip1)" clip-rule="nonzero">
<path style=" stroke:none;fill-rule:nonzero;fill:rgb(100%,100%,100%);fill-opacity:1;" d="M 56.242188 11.25 C 31.4375 11.25 11.257812 31.429688 11.257812 56.238281 C 11.257812 81.042969 31.4375 101.226562 56.242188 101.226562 C 81.050781 101.226562 101.234375 81.042969 101.234375 56.238281 C 101.234375 31.429688 81.050781 11.25 56.242188 11.25 Z M 56.242188 98.949219 C 32.691406 98.949219 13.53125 79.789062 13.53125 56.238281 C 13.53125 32.683594 32.691406 13.523438 56.242188 13.523438 C 79.796875 13.523438 98.957031 32.683594 98.957031 56.238281 C 98.957031 79.789062 79.796875 98.949219 56.242188 98.949219 Z M 56.242188 98.949219 "/>
</g>
<path style=" stroke:none;fill-rule:nonzero;fill:rgb(100%,100%,100%);fill-opacity:1;" d="M 74.746094 50.964844 C 74.742188 50.964844 74.742188 50.964844 74.742188 50.964844 L 61.769531 50.960938 L 61.769531 39.007812 C 61.769531 37.503906 61.183594 36.09375 60.125 35.035156 C 59.0625 33.972656 57.652344 33.386719 56.152344 33.386719 C 53.054688 33.386719 50.53125 35.90625 50.53125 39.007812 L 50.53125 50.960938 L 37.933594 50.960938 C 34.835938 50.960938 32.316406 53.484375 32.316406 56.582031 C 32.316406 59.675781 34.839844 62.199219 37.933594 62.199219 L 50.53125 62.199219 L 50.53125 75.8125 C 50.53125 78.910156 53.054688 81.433594 56.152344 81.433594 C 59.25 81.433594 61.769531 78.914062 61.769531 75.816406 L 61.769531 62.199219 L 74.742188 62.199219 C 77.839844 62.199219 80.359375 59.679688 80.359375 56.582031 C 80.359375 55.082031 79.777344 53.667969 78.714844 52.609375 C 77.65625 51.546875 76.246094 50.964844 74.746094 50.964844 Z M 74.742188 59.925781 L 59.496094 59.925781 L 59.496094 75.816406 C 59.496094 77.660156 57.996094 79.15625 56.152344 79.15625 C 54.308594 79.15625 52.808594 77.65625 52.808594 75.8125 L 52.808594 59.925781 L 37.933594 59.925781 C 36.09375 59.921875 34.59375 58.421875 34.589844 56.582031 C 34.589844 54.738281 36.089844 53.238281 37.933594 53.238281 L 52.808594 53.238281 L 52.808594 39.007812 C 52.808594 37.164062 54.308594 35.664062 56.148438 35.664062 C 57.042969 35.664062 57.882812 36.011719 58.515625 36.644531 C 59.144531 37.273438 59.496094 38.113281 59.492188 39.007812 L 59.496094 53.238281 L 74.742188 53.238281 C 74.742188 53.238281 74.742188 53.238281 74.746094 53.238281 C 75.636719 53.238281 76.476562 53.585938 77.105469 54.214844 C 77.738281 54.847656 78.085938 55.6875 78.085938 56.582031 C 78.085938 58.425781 76.585938 59.925781 74.742188 59.925781 Z M 74.742188 59.925781 "/>
</g>
</svg>
