<?xml version="1.0" encoding="UTF-8"?>
<svg xmlns="http://www.w3.org/2000/svg" xmlns:xlink="http://www.w3.org/1999/xlink" width="112.5pt" height="112.499997pt" viewBox="0 0 112.5 112.499997" version="1.2">
<defs>
<clipPath id="clip1">
  <path d="M 14.609375 14.609375 L 97.859375 14.609375 L 97.859375 97.859375 L 14.609375 97.859375 Z M 14.609375 14.609375 "/>
</clipPath>
</defs>
<g id="surface1">
<g clip-path="url(#clip1)" clip-rule="nonzero">
<path style=" stroke:none;fill-rule:nonzero;fill:rgb(100%,100%,100%);fill-opacity:1;" d="M 82.578125 67.339844 C 77.136719 67.339844 72.355469 70.203125 69.652344 74.5 L 44.265625 61.34375 C 44.835938 59.746094 45.148438 58.027344 45.148438 56.234375 C 45.148438 54.515625 44.859375 52.867188 44.335938 51.328125 L 69.992188 38.488281 C 72.746094 42.492188 77.359375 45.125 82.578125 45.125 C 90.992188 45.125 97.835938 38.28125 97.835938 29.867188 C 97.835938 21.453125 90.992188 14.609375 82.578125 14.609375 C 74.164062 14.609375 67.316406 21.453125 67.316406 29.867188 C 67.316406 31.585938 67.605469 33.234375 68.132812 34.773438 L 42.472656 47.613281 C 39.722656 43.609375 35.109375 40.976562 29.890625 40.976562 C 21.476562 40.976562 14.632812 47.820312 14.632812 56.234375 C 14.632812 64.648438 21.476562 71.492188 29.890625 71.492188 C 35.03125 71.492188 39.582031 68.933594 42.347656 65.027344 L 67.941406 78.289062 C 67.539062 79.65625 67.316406 81.101562 67.316406 82.601562 C 67.316406 91.011719 74.164062 97.859375 82.578125 97.859375 C 90.992188 97.859375 97.835938 91.011719 97.835938 82.601562 C 97.835938 74.1875 90.992188 67.339844 82.578125 67.339844 Z M 82.578125 18.761719 C 88.703125 18.761719 93.683594 23.742188 93.683594 29.867188 C 93.683594 35.992188 88.703125 40.976562 82.578125 40.976562 C 76.453125 40.976562 71.46875 35.992188 71.46875 29.867188 C 71.46875 23.742188 76.453125 18.761719 82.578125 18.761719 Z M 29.890625 67.339844 C 23.765625 67.339844 18.785156 62.359375 18.785156 56.234375 C 18.785156 50.109375 23.765625 45.128906 29.890625 45.128906 C 36.015625 45.128906 40.996094 50.109375 40.996094 56.234375 C 40.996094 62.359375 36.015625 67.339844 29.890625 67.339844 Z M 82.578125 93.707031 C 76.453125 93.707031 71.46875 88.722656 71.46875 82.601562 C 71.46875 76.476562 76.453125 71.492188 82.578125 71.492188 C 88.703125 71.492188 93.683594 76.476562 93.683594 82.601562 C 93.683594 88.722656 88.703125 93.707031 82.578125 93.707031 Z M 82.578125 93.707031 "/>
</g>
</g>
</svg>
