<?xml version="1.0" encoding="UTF-8"?>
<svg xmlns="http://www.w3.org/2000/svg" xmlns:xlink="http://www.w3.org/1999/xlink" width="112.5pt" height="112.499997pt" viewBox="0 0 112.5 112.499997" version="1.2">
<defs>
<clipPath id="clip1">
  <path d="M 3.492188 12.328125 L 26 12.328125 L 26 35 L 3.492188 35 Z M 3.492188 12.328125 "/>
</clipPath>
<clipPath id="clip2">
  <path d="M 87 12.328125 L 109.242188 12.328125 L 109.242188 35 L 87 35 Z M 87 12.328125 "/>
</clipPath>
<clipPath id="clip3">
  <path d="M 3.492188 78 L 26 78 L 26 100.078125 L 3.492188 100.078125 Z M 3.492188 78 "/>
</clipPath>
<clipPath id="clip4">
  <path d="M 87 78 L 109.242188 78 L 109.242188 100.078125 L 87 100.078125 Z M 87 78 "/>
</clipPath>
</defs>
<g id="surface1">
<g clip-path="url(#clip1)" clip-rule="nonzero">
<path style=" stroke:none;fill-rule:nonzero;fill:rgb(100%,100%,100%);fill-opacity:1;" d="M 5.742188 34.265625 C 4.527344 34.265625 3.542969 33.28125 3.542969 32.070312 L 3.542969 23.296875 C 3.542969 17.25 8.476562 12.328125 14.546875 12.328125 L 23.351562 12.328125 C 24.566406 12.328125 25.550781 13.3125 25.550781 14.523438 C 25.550781 15.734375 24.566406 16.714844 23.351562 16.714844 L 14.546875 16.714844 C 10.90625 16.714844 7.945312 19.667969 7.945312 23.296875 L 7.945312 32.070312 C 7.945312 33.28125 6.957031 34.265625 5.742188 34.265625 Z M 5.742188 34.265625 "/>
</g>
<g clip-path="url(#clip2)" clip-rule="nonzero">
<path style=" stroke:none;fill-rule:nonzero;fill:rgb(100%,100%,100%);fill-opacity:1;" d="M 106.988281 34.265625 C 105.773438 34.265625 104.789062 33.28125 104.789062 32.070312 L 104.789062 23.296875 C 104.789062 19.667969 101.824219 16.714844 98.183594 16.714844 L 89.378906 16.714844 C 88.164062 16.714844 87.179688 15.734375 87.179688 14.523438 C 87.179688 13.3125 88.164062 12.328125 89.378906 12.328125 L 98.183594 12.328125 C 104.253906 12.328125 109.1875 17.25 109.1875 23.296875 L 109.1875 32.070312 C 109.1875 33.28125 108.203125 34.265625 106.988281 34.265625 Z M 106.988281 34.265625 "/>
</g>
<g clip-path="url(#clip3)" clip-rule="nonzero">
<path style=" stroke:none;fill-rule:nonzero;fill:rgb(100%,100%,100%);fill-opacity:1;" d="M 23.351562 100.078125 L 14.546875 100.078125 C 8.476562 100.078125 3.542969 95.15625 3.542969 89.109375 L 3.542969 80.335938 C 3.542969 79.125 4.527344 78.140625 5.742188 78.140625 C 6.957031 78.140625 7.945312 79.125 7.945312 80.335938 L 7.945312 89.109375 C 7.945312 92.738281 10.90625 95.691406 14.546875 95.691406 L 23.351562 95.691406 C 24.566406 95.691406 25.550781 96.671875 25.550781 97.882812 C 25.550781 99.09375 24.566406 100.078125 23.351562 100.078125 Z M 23.351562 100.078125 "/>
</g>
<g clip-path="url(#clip4)" clip-rule="nonzero">
<path style=" stroke:none;fill-rule:nonzero;fill:rgb(100%,100%,100%);fill-opacity:1;" d="M 98.183594 100.078125 L 89.378906 100.078125 C 88.164062 100.078125 87.179688 99.09375 87.179688 97.882812 C 87.179688 96.671875 88.164062 95.691406 89.378906 95.691406 L 98.183594 95.691406 C 101.824219 95.691406 104.789062 92.738281 104.789062 89.109375 L 104.789062 80.335938 C 104.789062 79.125 105.773438 78.140625 106.988281 78.140625 C 108.203125 78.140625 109.1875 79.125 109.1875 80.335938 L 109.1875 89.109375 C 109.1875 95.15625 104.253906 100.078125 98.183594 100.078125 Z M 98.183594 100.078125 "/>
</g>
<path style=" stroke:none;fill-rule:nonzero;fill:rgb(100%,100%,100%);fill-opacity:1;" d="M 56.367188 82.527344 C 39.40625 82.527344 24.953125 71.917969 21.214844 56.726562 C 21.128906 56.382812 21.128906 56.023438 21.214844 55.679688 C 24.953125 40.488281 39.40625 29.878906 56.367188 29.878906 C 73.328125 29.878906 87.777344 40.488281 91.515625 55.679688 C 91.605469 56.023438 91.605469 56.382812 91.515625 56.726562 C 87.777344 71.917969 73.328125 82.527344 56.367188 82.527344 Z M 25.621094 56.203125 C 29.082031 69.144531 41.640625 78.140625 56.367188 78.140625 C 71.089844 78.140625 83.648438 69.144531 87.109375 56.203125 C 83.648438 43.261719 71.09375 34.265625 56.367188 34.265625 C 41.636719 34.265625 29.082031 43.261719 25.621094 56.203125 Z M 25.621094 56.203125 "/>
<path style=" stroke:none;fill-rule:nonzero;fill:rgb(100%,100%,100%);fill-opacity:1;" d="M 56.367188 69.367188 C 49.085938 69.367188 43.160156 63.460938 43.160156 56.203125 C 43.160156 48.945312 49.085938 43.039062 56.367188 43.039062 C 63.648438 43.039062 69.570312 48.945312 69.570312 56.203125 C 69.570312 63.460938 63.648438 69.367188 56.367188 69.367188 Z M 56.367188 47.429688 C 51.511719 47.429688 47.5625 51.363281 47.5625 56.203125 C 47.5625 61.042969 51.511719 64.976562 56.367188 64.976562 C 61.222656 64.976562 65.167969 61.042969 65.167969 56.203125 C 65.167969 51.363281 61.222656 47.429688 56.367188 47.429688 Z M 56.367188 47.429688 "/>
</g>
</svg>
