<?xml version="1.0" encoding="UTF-8"?>
<svg xmlns="http://www.w3.org/2000/svg" xmlns:xlink="http://www.w3.org/1999/xlink" width="112.5pt" height="112.499997pt" viewBox="0 0 112.5 112.499997" version="1.2">
<defs>
<clipPath id="clip1">
  <path d="M 11 18.351562 L 102 18.351562 L 102 94 L 11 94 Z M 11 18.351562 "/>
</clipPath>
</defs>
<g id="surface1">
<path style=" stroke:none;fill-rule:nonzero;fill:rgb(100%,100%,100%);fill-opacity:1;" d="M 59.015625 65.984375 L 59.015625 42.820312 C 59.015625 40.433594 57.183594 38.605469 54.789062 38.605469 C 52.398438 38.605469 50.566406 40.574219 50.566406 42.820312 L 50.566406 66.125 C 50.566406 68.511719 52.398438 70.335938 54.789062 70.335938 C 57.183594 70.335938 59.015625 68.371094 59.015625 65.984375 Z M 53.382812 65.984375 L 53.382812 42.820312 C 53.382812 41.976562 53.945312 41.414062 54.789062 41.414062 C 55.636719 41.414062 56.199219 42.117188 56.199219 42.820312 L 56.199219 66.125 C 56.199219 66.964844 55.636719 67.527344 54.789062 67.527344 C 53.945312 67.527344 53.382812 66.828125 53.382812 65.984375 Z M 53.382812 65.984375 "/>
<path style=" stroke:none;fill-rule:nonzero;fill:rgb(100%,100%,100%);fill-opacity:1;" d="M 53.101562 74.828125 C 52.257812 75.671875 51.835938 76.652344 51.835938 77.777344 C 51.835938 78.898438 52.257812 80.023438 53.101562 80.726562 C 53.945312 81.566406 54.929688 81.988281 56.058594 81.988281 C 57.183594 81.988281 58.308594 81.566406 59.015625 80.726562 C 59.859375 79.882812 60.28125 78.898438 60.28125 77.777344 C 60.28125 76.652344 59.859375 75.53125 59.015625 74.828125 C 57.605469 73.285156 54.789062 73.285156 53.101562 74.828125 Z M 57.183594 78.898438 C 56.621094 79.460938 55.636719 79.460938 55.214844 78.898438 C 54.929688 78.621094 54.789062 78.339844 54.789062 77.917969 C 54.789062 77.496094 54.929688 77.214844 55.214844 76.933594 C 55.496094 76.652344 55.917969 76.511719 56.199219 76.511719 C 56.621094 76.511719 56.902344 76.652344 57.183594 76.933594 C 57.464844 77.214844 57.605469 77.496094 57.605469 77.917969 C 57.605469 78.199219 57.464844 78.621094 57.183594 78.898438 Z M 57.183594 78.898438 "/>
<g clip-path="url(#clip1)" clip-rule="nonzero">
<path style=" stroke:none;fill-rule:nonzero;fill:rgb(100%,100%,100%);fill-opacity:1;" d="M 72.949219 37.484375 L 64.363281 23.867188 C 62.25 20.496094 59.296875 18.53125 56.058594 18.53125 C 52.820312 18.53125 49.863281 20.496094 47.753906 23.867188 L 13.121094 80.023438 C 11.011719 83.53125 10.589844 87.042969 12.136719 89.710938 C 13.6875 92.378906 16.640625 93.921875 20.867188 93.921875 L 91.953125 93.921875 C 96.035156 93.921875 99.132812 92.378906 100.539062 89.710938 C 102.089844 87.042969 101.667969 83.53125 99.414062 80.023438 Z M 97.867188 88.304688 C 96.878906 89.992188 94.628906 90.972656 91.671875 90.972656 L 20.722656 90.972656 C 17.769531 90.972656 15.515625 89.992188 14.53125 88.304688 C 13.546875 86.621094 13.96875 84.09375 15.515625 81.566406 L 50.285156 25.550781 C 51.976562 22.882812 54.085938 21.480469 56.199219 21.480469 C 58.308594 21.480469 60.421875 22.882812 62.109375 25.410156 L 68.304688 35.238281 L 97.019531 81.566406 C 98.570312 84.09375 98.851562 86.480469 97.867188 88.304688 Z M 97.867188 88.304688 "/>
</g>
</g>
</svg>
