<?xml version="1.0" encoding="UTF-8"?>
<svg xmlns="http://www.w3.org/2000/svg" xmlns:xlink="http://www.w3.org/1999/xlink" width="112.5pt" height="112.499997pt" viewBox="0 0 112.5 112.499997" version="1.2">
<defs>
<clipPath id="clip1">
  <path d="M 18.792969 15.253906 L 93.792969 15.253906 L 93.792969 97.003906 L 18.792969 97.003906 Z M 18.792969 15.253906 "/>
</clipPath>
</defs>
<g id="surface1">
<g clip-path="url(#clip1)" clip-rule="nonzero">
<path style=" stroke:none;fill-rule:nonzero;fill:rgb(100%,100%,100%);fill-opacity:1;" d="M 92.992188 50.011719 L 57.675781 15.992188 C 56.902344 15.25 55.679688 15.25 54.90625 15.992188 L 19.589844 50.011719 C 19.007812 50.574219 18.824219 51.433594 19.128906 52.179688 C 19.433594 52.929688 20.164062 53.421875 20.976562 53.421875 L 26.675781 53.421875 L 26.675781 95.019531 C 26.675781 96.117188 27.566406 97.003906 28.667969 97.003906 L 83.917969 97.003906 C 85.015625 97.003906 85.90625 96.117188 85.90625 95.019531 L 85.90625 53.421875 L 91.609375 53.421875 C 92.417969 53.421875 93.148438 52.929688 93.453125 52.179688 C 93.757812 51.433594 93.574219 50.574219 92.992188 50.011719 Z M 83.917969 49.453125 C 82.816406 49.453125 81.925781 50.34375 81.925781 51.4375 L 81.925781 93.039062 L 30.65625 93.039062 L 30.65625 51.4375 C 30.65625 50.34375 29.765625 49.453125 28.667969 49.453125 L 25.898438 49.453125 L 56.292969 20.175781 L 86.6875 49.453125 Z M 83.917969 49.453125 "/>
</g>
<path style=" stroke:none;fill-rule:nonzero;fill:rgb(100%,100%,100%);fill-opacity:1;" d="M 46.046875 74.199219 L 66.496094 74.199219 L 66.496094 94.648438 L 46.046875 94.648438 Z M 46.046875 74.199219 "/>
<path style=" stroke:none;fill-rule:nonzero;fill:rgb(100%,100%,100%);fill-opacity:1;" d="M 56.25 65.3125 C 55.578125 65.3125 54.917969 65.371094 54.257812 65.484375 C 53.601562 65.597656 52.964844 65.765625 52.34375 65.992188 C 51.726562 66.214844 51.136719 66.488281 50.582031 66.8125 C 50.023438 67.136719 49.507812 67.503906 49.035156 67.917969 C 48.558594 68.328125 48.136719 68.777344 47.765625 69.261719 C 47.394531 69.746094 47.078125 70.257812 46.820312 70.796875 C 46.566406 71.335938 46.371094 71.894531 46.242188 72.464844 C 46.109375 73.035156 46.046875 73.613281 46.046875 74.199219 C 46.046875 74.78125 46.109375 75.359375 46.242188 75.929688 C 46.371094 76.503906 46.566406 77.058594 46.820312 77.597656 C 47.078125 78.136719 47.394531 78.648438 47.765625 79.132812 C 48.136719 79.617188 48.558594 80.066406 49.035156 80.480469 C 49.507812 80.890625 50.023438 81.261719 50.582031 81.585938 C 51.136719 81.910156 51.726562 82.183594 52.34375 82.40625 C 52.964844 82.628906 53.601562 82.796875 54.257812 82.910156 C 54.917969 83.023438 55.578125 83.082031 56.25 83.082031 C 56.921875 83.082031 57.582031 83.023438 58.242188 82.910156 C 58.898438 82.796875 59.535156 82.628906 60.15625 82.40625 C 60.773438 82.183594 61.363281 81.910156 61.917969 81.585938 C 62.476562 81.261719 62.992188 80.890625 63.464844 80.480469 C 63.941406 80.066406 64.363281 79.617188 64.734375 79.132812 C 65.105469 78.648438 65.421875 78.136719 65.679688 77.597656 C 65.933594 77.058594 66.128906 76.503906 66.257812 75.929688 C 66.390625 75.359375 66.453125 74.78125 66.453125 74.199219 C 66.453125 73.613281 66.390625 73.035156 66.257812 72.464844 C 66.128906 71.894531 65.933594 71.335938 65.679688 70.796875 C 65.421875 70.257812 65.105469 69.746094 64.734375 69.261719 C 64.363281 68.777344 63.941406 68.328125 63.464844 67.917969 C 62.992188 67.503906 62.476562 67.136719 61.917969 66.8125 C 61.363281 66.488281 60.773438 66.214844 60.15625 65.992188 C 59.535156 65.765625 58.898438 65.597656 58.242188 65.484375 C 57.582031 65.371094 56.921875 65.3125 56.25 65.3125 Z M 56.25 65.3125 "/>
</g>
</svg>
