<?xml version="1.0" encoding="UTF-8"?>
<svg xmlns="http://www.w3.org/2000/svg" xmlns:xlink="http://www.w3.org/1999/xlink" width="112.5pt" height="112.499997pt" viewBox="0 0 112.5 112.499997" version="1.2">
<defs>
<clipPath id="clip1">
  <path d="M 25.242188 70 L 52 70 L 52 95.6875 L 25.242188 95.6875 Z M 25.242188 70 "/>
</clipPath>
</defs>
<g id="surface1">
<path style=" stroke:none;fill-rule:nonzero;fill:rgb(100%,100%,100%);fill-opacity:1;" d="M 50.609375 88.066406 C 50.230469 88.746094 48.242188 80.675781 42.523438 77 C 37.359375 73.6875 28.347656 74.816406 29.125 73.941406 C 33.464844 68.636719 41.636719 70.832031 43.46875 68.332031 L 45.277344 65.605469 C 45.277344 65.605469 60.535156 42.613281 61.457031 41.222656 C 62.648438 39.425781 60.222656 30.585938 61.292969 27.414062 C 61.292969 27.414062 69.816406 39.554688 81.6875 40.414062 C 79.609375 42.105469 69.855469 43.410156 68.242188 45.449219 C 67 47.019531 51.921875 69.996094 51.921875 69.996094 C 51.921875 69.996094 50.945312 71.105469 50.136719 72.734375 C 48.691406 75.628906 53.699219 82.273438 50.609375 88.066406 "/>
<g clip-path="url(#clip1)" clip-rule="nonzero">
<path style=" stroke:none;fill-rule:nonzero;fill:rgb(100%,100%,100%);fill-opacity:1;" d="M 27.675781 88.21875 L 34.875 77.371094 L 41.648438 77.710938 L 44.785156 83.917969 L 37.472656 94.9375 C 42.195312 95.683594 46.996094 93.867188 49.660156 89.851562 C 53.382812 84.242188 51.519531 76.472656 45.5 72.496094 C 39.476562 68.519531 31.578125 69.839844 27.855469 75.449219 C 25.28125 79.332031 25.382812 84.242188 27.675781 88.21875 "/>
</g>
<path style=" stroke:none;fill-rule:nonzero;fill:rgb(100%,100%,100%);fill-opacity:1;" d="M 85.058594 24.40625 L 77.859375 35.253906 C 77.859375 35.253906 74.390625 37.355469 71.085938 34.917969 C 67.78125 32.476562 67.949219 28.707031 67.949219 28.707031 L 75.261719 17.6875 C 70.539062 16.941406 65.738281 18.757812 63.074219 22.773438 C 59.351562 28.382812 61.214844 36.152344 67.238281 40.128906 C 73.257812 44.109375 81.15625 42.785156 84.878906 37.175781 C 87.453125 33.296875 87.355469 28.382812 85.058594 24.40625 "/>
</g>
</svg>
