<?xml version="1.0" encoding="UTF-8"?>
<svg xmlns="http://www.w3.org/2000/svg" xmlns:xlink="http://www.w3.org/1999/xlink" width="112.5pt" height="112.499997pt" viewBox="0 0 112.5 112.499997" version="1.2">
<defs>
<clipPath id="clip1">
  <path d="M 21 15.957031 L 91.890625 15.957031 L 91.890625 96.207031 L 21 96.207031 Z M 21 15.957031 "/>
</clipPath>
</defs>
<g id="surface1">
<g clip-path="url(#clip1)" clip-rule="nonzero">
<path style=" stroke:none;fill-rule:nonzero;fill:rgb(100%,100%,100%);fill-opacity:1;" d="M 90.207031 83.515625 C 88.652344 82.71875 86.890625 81.484375 86.605469 81.015625 C 84.226562 75.695312 82.976562 57.347656 82.691406 50.660156 C 82.671875 38.214844 75.964844 28.109375 65.4375 24.410156 C 65.074219 19.6875 61.101562 15.957031 56.265625 15.957031 C 51.429688 15.957031 47.453125 19.6875 47.09375 24.410156 C 36.550781 28.113281 29.839844 38.238281 29.839844 50.636719 C 29.636719 57.15625 28.621094 75.246094 26.429688 80.515625 C 26.101562 81.09375 24.117188 82.535156 22.269531 83.542969 C 21.367188 84.039062 20.910156 85.078125 21.167969 86.074219 C 21.425781 87.070312 22.324219 87.761719 23.355469 87.761719 L 45.765625 87.761719 C 46.804688 92.582031 51.117188 96.207031 56.265625 96.207031 C 61.414062 96.207031 65.722656 92.582031 66.761719 87.761719 L 89.171875 87.761719 C 90.214844 87.761719 91.125 87.050781 91.371094 86.042969 C 91.613281 85.035156 91.132812 83.988281 90.207031 83.515625 Z M 56.265625 91.710938 C 53.628906 91.710938 51.375 90.070312 50.46875 87.761719 L 62.0625 87.761719 C 61.15625 90.070312 58.898438 91.710938 56.265625 91.710938 Z M 29.992188 83.265625 C 30.242188 82.941406 30.445312 82.609375 30.582031 82.277344 C 33.558594 75.125 34.320312 51.769531 34.355469 50.707031 C 34.355469 39.660156 40.492188 30.828125 49.996094 28.210938 C 51.082031 27.910156 51.78125 26.859375 51.632812 25.746094 C 51.597656 25.492188 51.582031 25.289062 51.582031 25.113281 C 51.582031 22.542969 53.683594 20.453125 56.265625 20.453125 C 58.847656 20.453125 60.949219 22.542969 60.949219 25.113281 C 60.949219 25.289062 60.933594 25.492188 60.898438 25.746094 C 60.746094 26.859375 61.445312 27.914062 62.535156 28.210938 C 72.035156 30.828125 78.175781 39.660156 78.175781 50.707031 C 78.175781 50.738281 78.175781 50.769531 78.175781 50.800781 C 78.21875 51.8125 79.261719 75.640625 82.484375 82.847656 C 82.546875 82.988281 82.621094 83.128906 82.707031 83.265625 Z M 29.992188 83.265625 "/>
</g>
</g>
</svg>
