<?xml version="1.0" encoding="UTF-8"?>
<svg xmlns="http://www.w3.org/2000/svg" xmlns:xlink="http://www.w3.org/1999/xlink" width="112.5pt" height="112.499997pt" viewBox="0 0 112.5 112.499997" version="1.2">
<g id="surface1">
<path style=" stroke:none;fill-rule:nonzero;fill:rgb(100%,100%,100%);fill-opacity:1;" d="M 12.390625 56.421875 L 23.410156 64.675781 C 23.941406 65.070312 24.519531 65.265625 25.109375 65.265625 C 26.371094 65.265625 27.300781 64.292969 27.300781 62.941406 L 27.300781 58.019531 L 97.496094 58.019531 C 99.578125 57.972656 101.25 56.269531 101.25 54.171875 C 101.25 52.074219 99.578125 50.375 97.496094 50.328125 L 27.300781 50.328125 L 27.300781 45.402344 C 27.300781 44.050781 26.371094 43.078125 25.109375 43.078125 C 24.519531 43.078125 23.941406 43.292969 23.410156 43.6875 L 12.390625 51.921875 C 11.628906 52.5 11.191406 53.320312 11.191406 54.171875 C 11.191406 55.039062 11.628906 55.84375 12.390625 56.421875 Z M 12.390625 56.421875 "/>
</g>
</svg>
