<?xml version="1.0" encoding="UTF-8"?>
<svg xmlns="http://www.w3.org/2000/svg" xmlns:xlink="http://www.w3.org/1999/xlink" width="112.5pt" height="112.499997pt" viewBox="0 0 112.5 112.499997" version="1.2">
<g id="surface1">
<path style=" stroke:none;fill-rule:nonzero;fill:rgb(100%,100%,100%);fill-opacity:1;" d="M 52.578125 77.84375 C 38.621094 77.84375 27.3125 66.53125 27.3125 52.582031 C 27.3125 38.625 38.621094 27.316406 52.578125 27.316406 C 66.527344 27.316406 77.84375 38.625 77.84375 52.582031 C 77.824219 66.527344 66.523438 77.828125 52.578125 77.84375 Z M 94.683594 89.925781 L 77.449219 72.695312 C 88.578125 58.941406 86.445312 38.769531 72.691406 27.644531 C 58.933594 16.519531 38.765625 18.652344 27.640625 32.40625 C 16.515625 46.164062 18.648438 66.332031 32.402344 77.457031 C 44.148438 86.957031 60.941406 86.957031 72.691406 77.457031 L 89.921875 94.6875 C 91.230469 96.007812 93.363281 96.019531 94.683594 94.707031 C 96.003906 93.394531 96.011719 91.265625 94.703125 89.941406 C 94.695312 89.9375 94.6875 89.933594 94.683594 89.925781 "/>
</g>
</svg>
