<?xml version="1.0" encoding="UTF-8"?>
<svg xmlns="http://www.w3.org/2000/svg" xmlns:xlink="http://www.w3.org/1999/xlink" width="112.5pt" height="112.499997pt" viewBox="0 0 112.5 112.499997" version="1.2">
<defs>
<clipPath id="clip1">
  <path d="M 12.101562 17.15625 L 100.601562 17.15625 L 100.601562 94.980469 L 12.101562 94.980469 Z M 12.101562 17.15625 "/>
</clipPath>
</defs>
<g id="surface1">
<g clip-path="url(#clip1)" clip-rule="nonzero">
<path style=" stroke:none;fill-rule:nonzero;fill:rgb(100%,100%,100%);fill-opacity:1;" d="M 56.457031 94.980469 L 55.515625 94.347656 C 55.410156 94.277344 44.609375 86.96875 33.96875 76.867188 C 27.6875 70.890625 22.671875 65.128906 19.050781 59.714844 C 14.457031 52.792969 12.117188 46.378906 12.117188 40.6875 C 12.117188 27.71875 22.777344 17.15625 35.863281 17.15625 C 40.722656 17.15625 45.425781 18.632812 49.433594 21.445312 C 52.339844 23.484375 54.71875 26.082031 56.457031 29.070312 C 58.195312 26.066406 60.570312 23.464844 63.480469 21.445312 C 67.488281 18.632812 72.1875 17.15625 77.046875 17.15625 C 90.136719 17.15625 100.792969 27.71875 100.792969 40.6875 L 100.792969 40.703125 C 100.742188 46.359375 98.382812 52.722656 93.769531 59.628906 C 90.152344 65.039062 85.152344 70.804688 78.875 76.796875 C 68.25 86.933594 57.503906 94.277344 57.394531 94.347656 Z M 35.863281 20.441406 C 24.601562 20.441406 15.433594 29.527344 15.433594 40.6875 C 15.433594 45.730469 17.578125 51.507812 21.820312 57.871094 C 25.277344 63.070312 30.136719 68.660156 36.238281 74.457031 C 44.875 82.664062 53.636719 89.007812 56.457031 90.976562 C 59.277344 88.988281 67.984375 82.613281 76.601562 74.386719 C 82.6875 68.570312 87.527344 63 91.003906 57.800781 C 95.242188 51.4375 97.425781 45.695312 97.460938 40.6875 C 97.460938 29.527344 88.289062 20.460938 77.027344 20.460938 C 68.675781 20.460938 61.03125 25.695312 57.980469 33.5 L 56.4375 37.46875 L 54.914062 33.5 C 51.863281 25.695312 44.21875 20.441406 35.863281 20.441406 Z M 35.863281 20.441406 "/>
</g>
</g>
</svg>
