<?xml version="1.0" encoding="UTF-8"?>
<svg xmlns="http://www.w3.org/2000/svg" xmlns:xlink="http://www.w3.org/1999/xlink" width="112.5pt" height="112.499997pt" viewBox="0 0 112.5 112.499997" version="1.2">
<defs>
<clipPath id="clip1">
  <path d="M 0.0585938 4.878906 L 104.332031 4.878906 L 104.332031 107.621094 L 0.0585938 107.621094 Z M 0.0585938 4.878906 "/>
</clipPath>
<clipPath id="clip2">
  <path d="M 92.136719 21.050781 L 112.003906 21.050781 L 112.003906 107.621094 L 92.136719 107.621094 Z M 92.136719 21.050781 "/>
</clipPath>
</defs>
<g id="surface1">
<g clip-path="url(#clip1)" clip-rule="nonzero">
<path style=" stroke:none;fill-rule:nonzero;fill:rgb(100%,100%,100%);fill-opacity:1;" d="M 92.339844 26.03125 C 92.339844 27.003906 93.128906 27.792969 94.097656 27.792969 C 95.066406 27.792969 95.855469 27.003906 95.855469 26.03125 L 95.855469 6.636719 C 95.855469 5.664062 95.066406 4.878906 94.097656 4.878906 L 1.816406 4.878906 C 0.84375 4.878906 0.0585938 5.664062 0.0585938 6.636719 L 0.0585938 97.417969 C 0.0585938 100.226562 1.207031 102.777344 3.050781 104.625 C 4.898438 106.472656 7.449219 107.621094 10.253906 107.621094 L 102.382812 107.621094 C 103.351562 107.621094 104.140625 106.835938 104.140625 105.863281 C 104.140625 104.890625 103.351562 104.105469 102.382812 104.105469 L 10.253906 104.105469 C 8.417969 104.105469 6.746094 103.351562 5.535156 102.140625 C 4.324219 100.925781 3.570312 99.253906 3.570312 97.417969 L 3.570312 8.394531 L 92.339844 8.394531 L 92.339844 26.03125 "/>
</g>
<g clip-path="url(#clip2)" clip-rule="nonzero">
<path style=" stroke:none;fill-rule:nonzero;fill:rgb(100%,100%,100%);fill-opacity:1;" d="M 108.941406 24.753906 L 95.855469 24.753906 L 95.855469 97.554688 C 95.855469 99.355469 96.589844 100.992188 97.777344 102.179688 C 98.964844 103.367188 100.601562 104.105469 102.398438 104.105469 C 104.195312 104.105469 105.832031 103.367188 107.019531 102.179688 C 108.203125 100.992188 108.941406 99.355469 108.941406 97.554688 Z M 94.097656 21.238281 L 110.695312 21.238281 C 111.667969 21.238281 112.453125 22.027344 112.453125 22.996094 L 112.453125 97.554688 C 112.453125 100.324219 111.320312 102.84375 109.5 104.667969 C 107.679688 106.488281 105.164062 107.621094 102.398438 107.621094 C 99.628906 107.621094 97.113281 106.488281 95.292969 104.667969 C 93.472656 102.84375 92.339844 100.324219 92.339844 97.554688 L 92.339844 22.996094 C 92.339844 22.027344 93.128906 21.238281 94.097656 21.238281 "/>
</g>
<path style=" stroke:none;fill-rule:nonzero;fill:rgb(100%,100%,100%);fill-opacity:1;" d="M 23.820312 27.3125 C 23.773438 27.675781 23.707031 27.96875 23.617188 28.191406 C 23.53125 28.414062 23.4375 28.589844 23.332031 28.710938 C 23.222656 28.832031 23.121094 28.925781 23.011719 28.988281 C 22.90625 29.050781 22.804688 29.105469 22.714844 29.144531 C 22.625 29.191406 22.554688 29.242188 22.496094 29.304688 C 22.441406 29.367188 22.417969 29.460938 22.414062 29.582031 C 22.417969 29.71875 22.457031 29.820312 22.53125 29.894531 C 22.605469 29.964844 22.691406 30.011719 22.796875 30.042969 C 22.902344 30.070312 23.003906 30.085938 23.101562 30.089844 C 23.203125 30.09375 23.273438 30.09375 23.328125 30.09375 L 25.332031 30.09375 C 25.382812 30.09375 25.457031 30.09375 25.558594 30.089844 C 25.652344 30.085938 25.757812 30.070312 25.863281 30.042969 C 25.96875 30.011719 26.054688 29.964844 26.132812 29.894531 C 26.203125 29.820312 26.242188 29.71875 26.246094 29.582031 C 26.242188 29.460938 26.214844 29.367188 26.160156 29.304688 C 26.105469 29.242188 26.035156 29.191406 25.945312 29.144531 C 25.851562 29.105469 25.757812 29.050781 25.648438 28.988281 C 25.539062 28.925781 25.433594 28.832031 25.328125 28.710938 C 25.222656 28.589844 25.125 28.414062 25.042969 28.191406 C 24.953125 27.96875 24.886719 27.675781 24.839844 27.3125 L 24.839844 22 L 23.855469 20.242188 L 23.820312 20.242188 Z M 31.957031 22.617188 L 32.941406 24.394531 L 32.976562 24.394531 L 32.976562 20.117188 C 32.980469 19.699219 33.015625 19.363281 33.082031 19.101562 C 33.152344 18.84375 33.242188 18.640625 33.351562 18.488281 C 33.460938 18.339844 33.574219 18.230469 33.699219 18.148438 C 33.820312 18.070312 33.9375 18.003906 34.042969 17.949219 C 34.15625 17.898438 34.242188 17.832031 34.3125 17.761719 C 34.378906 17.691406 34.417969 17.59375 34.417969 17.460938 C 34.417969 17.335938 34.386719 17.242188 34.324219 17.171875 C 34.265625 17.101562 34.195312 17.046875 34.109375 17.011719 C 34.019531 16.976562 33.9375 16.957031 33.855469 16.945312 C 33.773438 16.9375 33.710938 16.933594 33.664062 16.933594 L 31.273438 16.933594 C 31.226562 16.933594 31.160156 16.9375 31.082031 16.945312 C 31 16.957031 30.914062 16.976562 30.832031 17.011719 C 30.742188 17.046875 30.667969 17.101562 30.609375 17.171875 C 30.550781 17.242188 30.519531 17.335938 30.515625 17.460938 C 30.519531 17.59375 30.554688 17.691406 30.625 17.761719 C 30.691406 17.832031 30.78125 17.898438 30.890625 17.949219 C 31 18.003906 31.113281 18.070312 31.238281 18.148438 C 31.359375 18.230469 31.472656 18.339844 31.585938 18.488281 C 31.695312 18.640625 31.78125 18.84375 31.851562 19.101562 C 31.917969 19.363281 31.957031 19.699219 31.957031 20.117188 Z M 27.863281 16.933594 L 32.976562 25.835938 L 32.976562 30.09375 L 30.359375 30.09375 L 23.925781 18.992188 C 23.835938 18.828125 23.753906 18.6875 23.683594 18.570312 C 23.613281 18.453125 23.523438 18.347656 23.417969 18.265625 C 23.3125 18.179688 23.167969 18.105469 22.976562 18.042969 C 22.875 18.007812 22.785156 17.972656 22.707031 17.933594 C 22.628906 17.894531 22.566406 17.84375 22.519531 17.773438 C 22.472656 17.703125 22.449219 17.605469 22.449219 17.480469 C 22.457031 17.304688 22.503906 17.183594 22.597656 17.105469 C 22.695312 17.027344 22.8125 16.984375 22.949219 16.964844 C 23.085938 16.945312 23.21875 16.9375 23.34375 16.933594 Z M 35.683594 17.480469 C 35.6875 17.601562 35.722656 17.703125 35.792969 17.78125 C 35.863281 17.859375 35.953125 17.917969 36.070312 17.953125 C 36.273438 18.011719 36.414062 18.078125 36.5 18.140625 C 36.582031 18.207031 36.632812 18.292969 36.652344 18.410156 C 36.664062 18.523438 36.671875 18.691406 36.667969 18.902344 L 36.667969 28.121094 C 36.671875 28.335938 36.664062 28.5 36.652344 28.613281 C 36.632812 28.730469 36.582031 28.820312 36.5 28.882812 C 36.414062 28.949219 36.273438 29.011719 36.070312 29.074219 C 35.953125 29.105469 35.863281 29.167969 35.792969 29.246094 C 35.722656 29.324219 35.6875 29.425781 35.683594 29.546875 C 35.6875 29.671875 35.714844 29.773438 35.773438 29.847656 C 35.835938 29.921875 35.902344 29.976562 35.984375 30.011719 C 36.0625 30.046875 36.136719 30.070312 36.203125 30.078125 C 36.269531 30.089844 36.316406 30.09375 36.335938 30.09375 L 40.976562 30.09375 L 40.976562 16.933594 L 36.335938 16.933594 C 36.316406 16.933594 36.269531 16.9375 36.203125 16.949219 C 36.136719 16.957031 36.0625 16.980469 35.984375 17.015625 C 35.902344 17.050781 35.835938 17.101562 35.773438 17.175781 C 35.714844 17.253906 35.6875 17.351562 35.683594 17.480469 Z M 41.765625 17.953125 C 42.535156 18.078125 43.15625 18.351562 43.625 18.777344 C 44.09375 19.203125 44.445312 19.769531 44.667969 20.484375 C 44.707031 20.621094 44.757812 20.726562 44.824219 20.808594 C 44.890625 20.886719 44.996094 20.921875 45.140625 20.925781 C 45.3125 20.921875 45.441406 20.890625 45.515625 20.835938 C 45.597656 20.78125 45.640625 20.71875 45.664062 20.65625 C 45.679688 20.585938 45.6875 20.535156 45.6875 20.503906 L 45.6875 16.933594 L 41.765625 16.933594 Z M 41.765625 30.09375 L 45.808594 30.09375 L 45.808594 26.574219 C 45.8125 26.554688 45.8125 26.511719 45.808594 26.453125 C 45.804688 26.390625 45.792969 26.320312 45.765625 26.25 C 45.738281 26.175781 45.6875 26.113281 45.617188 26.058594 C 45.546875 26.003906 45.4375 25.980469 45.300781 25.976562 C 45.195312 25.980469 45.113281 26.003906 45.042969 26.058594 C 44.980469 26.109375 44.925781 26.179688 44.878906 26.261719 C 44.835938 26.34375 44.796875 26.429688 44.753906 26.523438 C 44.59375 26.992188 44.371094 27.410156 44.085938 27.769531 C 43.800781 28.132812 43.460938 28.421875 43.070312 28.644531 C 42.679688 28.871094 42.242188 29.011719 41.765625 29.074219 Z M 41.765625 23.898438 L 41.765625 22.808594 C 42.011719 22.742188 42.214844 22.628906 42.378906 22.46875 C 42.542969 22.3125 42.671875 22.125 42.769531 21.914062 C 42.871094 21.703125 42.945312 21.488281 42.996094 21.261719 C 43.027344 21.160156 43.058594 21.0625 43.097656 20.976562 C 43.140625 20.890625 43.195312 20.816406 43.269531 20.765625 C 43.34375 20.710938 43.4375 20.679688 43.558594 20.679688 C 43.695312 20.683594 43.792969 20.714844 43.859375 20.78125 C 43.929688 20.84375 43.972656 20.921875 43.992188 21.015625 C 44.011719 21.105469 44.023438 21.191406 44.023438 21.273438 C 44.019531 21.355469 44.019531 21.417969 44.015625 21.453125 L 44.015625 25.253906 C 44.019531 25.292969 44.019531 25.351562 44.023438 25.433594 C 44.023438 25.515625 44.011719 25.605469 43.992188 25.695312 C 43.972656 25.785156 43.929688 25.859375 43.859375 25.925781 C 43.792969 25.992188 43.695312 26.027344 43.558594 26.03125 C 43.4375 26.027344 43.34375 26 43.269531 25.945312 C 43.195312 25.890625 43.140625 25.820312 43.097656 25.734375 C 43.058594 25.644531 43.027344 25.550781 42.996094 25.449219 C 42.945312 25.222656 42.871094 25.003906 42.769531 24.792969 C 42.671875 24.578125 42.542969 24.394531 42.378906 24.238281 C 42.214844 24.082031 42.011719 23.96875 41.765625 23.898438 Z M 54.105469 25.429688 L 52.367188 18.972656 C 52.339844 18.890625 52.320312 18.8125 52.300781 18.75 C 52.285156 18.679688 52.277344 18.609375 52.277344 18.535156 C 52.28125 18.375 52.324219 18.257812 52.402344 18.171875 C 52.480469 18.089844 52.570312 18.023438 52.671875 17.96875 C 52.773438 17.914062 52.867188 17.851562 52.945312 17.773438 C 53.023438 17.699219 53.066406 17.589844 53.066406 17.441406 C 53.066406 17.304688 53.035156 17.195312 52.964844 17.128906 C 52.902344 17.054688 52.816406 17.003906 52.714844 16.976562 C 52.609375 16.949219 52.5 16.9375 52.386719 16.933594 C 52.273438 16.929688 52.167969 16.929688 52.066406 16.933594 L 47.988281 16.933594 C 47.886719 16.929688 47.769531 16.933594 47.644531 16.941406 C 47.515625 16.949219 47.394531 16.972656 47.273438 17.007812 C 47.15625 17.042969 47.058594 17.097656 46.984375 17.175781 C 46.90625 17.257812 46.867188 17.371094 46.863281 17.511719 C 46.863281 17.617188 46.878906 17.703125 46.914062 17.761719 C 46.949219 17.828125 46.996094 17.875 47.058594 17.921875 C 47.121094 17.960938 47.199219 18 47.285156 18.042969 C 47.386719 18.085938 47.46875 18.136719 47.519531 18.1875 C 47.574219 18.234375 47.613281 18.296875 47.644531 18.367188 C 47.667969 18.4375 47.699219 18.527344 47.726562 18.640625 L 50.855469 30.09375 L 52.945312 30.09375 Z M 55.019531 16.933594 L 57.007812 16.933594 L 59.308594 25.710938 L 58.199219 30.09375 L 56.109375 30.09375 L 53.824219 21.613281 Z M 59.660156 24.199219 L 59.695312 24.214844 L 60.820312 19.75 C 60.894531 19.457031 60.976562 19.191406 61.074219 18.953125 C 61.167969 18.71875 61.300781 18.511719 61.46875 18.328125 C 61.636719 18.148438 61.867188 17.996094 62.15625 17.863281 C 62.269531 17.820312 62.359375 17.761719 62.425781 17.703125 C 62.488281 17.644531 62.527344 17.550781 62.527344 17.425781 C 62.523438 17.277344 62.484375 17.164062 62.414062 17.09375 C 62.339844 17.023438 62.25 16.980469 62.140625 16.957031 C 62.03125 16.9375 61.917969 16.929688 61.804688 16.933594 L 59.539062 16.933594 C 59.429688 16.929688 59.324219 16.941406 59.21875 16.964844 C 59.117188 16.988281 59.027344 17.035156 58.960938 17.105469 C 58.890625 17.171875 58.855469 17.273438 58.851562 17.410156 C 58.855469 17.535156 58.894531 17.640625 58.964844 17.71875 C 59.042969 17.796875 59.132812 17.867188 59.242188 17.925781 C 59.351562 17.988281 59.460938 18.054688 59.570312 18.125 C 59.679688 18.195312 59.773438 18.285156 59.84375 18.398438 C 59.917969 18.507812 59.957031 18.652344 59.957031 18.832031 C 59.957031 18.960938 59.945312 19.085938 59.917969 19.199219 C 59.890625 19.316406 59.863281 19.433594 59.835938 19.554688 L 59.167969 22.300781 Z M 68.027344 16.667969 C 67.378906 16.691406 66.78125 16.808594 66.230469 17.019531 C 65.683594 17.230469 65.207031 17.523438 64.800781 17.90625 C 64.394531 18.289062 64.078125 18.746094 63.851562 19.277344 C 63.628906 19.8125 63.511719 20.414062 63.507812 21.085938 C 63.511719 21.636719 63.589844 22.121094 63.742188 22.546875 C 63.894531 22.96875 64.105469 23.339844 64.375 23.664062 C 64.648438 23.984375 64.964844 24.273438 65.320312 24.519531 C 65.679688 24.769531 66.070312 24.996094 66.484375 25.203125 C 66.90625 25.40625 67.335938 25.597656 67.78125 25.78125 C 67.996094 25.875 68.226562 25.972656 68.472656 26.085938 C 68.714844 26.195312 68.945312 26.324219 69.167969 26.472656 C 69.382812 26.621094 69.558594 26.796875 69.695312 27 C 69.828125 27.199219 69.894531 27.441406 69.890625 27.71875 C 69.875 28.035156 69.792969 28.300781 69.648438 28.511719 C 69.5 28.71875 69.308594 28.882812 69.074219 29.015625 C 68.835938 29.144531 68.574219 29.25 68.289062 29.335938 L 68.289062 30.355469 C 68.816406 30.34375 69.316406 30.269531 69.796875 30.125 C 70.277344 29.980469 70.722656 29.78125 71.128906 29.515625 C 71.535156 29.25 71.890625 28.9375 72.195312 28.570312 C 72.496094 28.199219 72.734375 27.78125 72.902344 27.316406 C 73.070312 26.851562 73.15625 26.34375 73.160156 25.800781 C 73.164062 25.394531 73.113281 24.992188 73 24.585938 C 72.890625 24.183594 72.695312 23.792969 72.417969 23.40625 C 72.140625 23.023438 71.753906 22.65625 71.253906 22.308594 C 70.753906 21.957031 70.117188 21.628906 69.347656 21.332031 C 68.828125 21.128906 68.398438 20.941406 68.0625 20.769531 C 67.726562 20.59375 67.464844 20.417969 67.277344 20.253906 C 67.089844 20.082031 66.960938 19.90625 66.882812 19.722656 C 66.8125 19.542969 66.777344 19.34375 66.78125 19.132812 C 66.78125 18.890625 66.839844 18.679688 66.953125 18.488281 C 67.070312 18.300781 67.21875 18.136719 67.40625 18.003906 C 67.59375 17.871094 67.800781 17.765625 68.027344 17.691406 Z M 72.683594 17.460938 L 72.683594 20.46875 C 72.6875 20.605469 72.675781 20.738281 72.644531 20.867188 C 72.621094 20.996094 72.566406 21.101562 72.484375 21.183594 C 72.398438 21.265625 72.273438 21.3125 72.105469 21.3125 C 71.964844 21.3125 71.851562 21.277344 71.765625 21.214844 C 71.675781 21.148438 71.613281 21.0625 71.566406 20.960938 C 71.519531 20.859375 71.488281 20.75 71.472656 20.628906 C 71.421875 20.300781 71.320312 19.976562 71.167969 19.660156 C 71.015625 19.34375 70.820312 19.050781 70.585938 18.78125 C 70.351562 18.511719 70.082031 18.28125 69.785156 18.089844 C 69.488281 17.902344 69.164062 17.765625 68.820312 17.691406 L 68.820312 16.667969 C 69.101562 16.675781 69.375 16.714844 69.644531 16.785156 C 69.917969 16.851562 70.167969 16.929688 70.398438 17.019531 C 70.632812 17.105469 70.824219 17.183594 70.984375 17.25 C 71.140625 17.316406 71.246094 17.351562 71.296875 17.355469 C 71.40625 17.351562 71.496094 17.320312 71.5625 17.253906 C 71.628906 17.195312 71.6875 17.121094 71.738281 17.039062 C 71.785156 16.957031 71.84375 16.882812 71.910156 16.820312 C 71.976562 16.757812 72.0625 16.726562 72.175781 16.722656 C 72.308594 16.726562 72.414062 16.757812 72.484375 16.816406 C 72.554688 16.875 72.605469 16.949219 72.632812 17.039062 C 72.660156 17.125 72.679688 17.207031 72.683594 17.285156 C 72.683594 17.363281 72.6875 17.421875 72.683594 17.460938 Z M 63.507812 29.546875 L 63.507812 26.152344 C 63.507812 26.027344 63.519531 25.898438 63.546875 25.765625 C 63.574219 25.632812 63.628906 25.523438 63.710938 25.429688 C 63.789062 25.339844 63.910156 25.292969 64.070312 25.289062 C 64.1875 25.292969 64.296875 25.320312 64.386719 25.375 C 64.476562 25.425781 64.550781 25.496094 64.609375 25.585938 C 64.667969 25.675781 64.703125 25.765625 64.722656 25.871094 C 64.785156 26.226562 64.890625 26.59375 65.042969 26.960938 C 65.195312 27.332031 65.386719 27.683594 65.625 28.015625 C 65.859375 28.34375 66.132812 28.625 66.449219 28.859375 C 66.761719 29.09375 67.113281 29.25 67.5 29.335938 L 67.5 30.355469 C 67.121094 30.34375 66.804688 30.304688 66.554688 30.238281 C 66.300781 30.175781 66.085938 30.101562 65.914062 30.015625 C 65.742188 29.933594 65.585938 29.863281 65.445312 29.800781 C 65.304688 29.742188 65.160156 29.707031 65.003906 29.707031 C 64.867188 29.707031 64.757812 29.738281 64.679688 29.796875 C 64.601562 29.851562 64.535156 29.921875 64.480469 29.996094 C 64.429688 30.074219 64.371094 30.136719 64.308594 30.195312 C 64.246094 30.253906 64.164062 30.285156 64.054688 30.285156 C 63.921875 30.285156 63.8125 30.25 63.742188 30.183594 C 63.664062 30.117188 63.609375 30.039062 63.578125 29.949219 C 63.546875 29.859375 63.523438 29.777344 63.519531 29.699219 C 63.511719 29.625 63.507812 29.574219 63.507812 29.546875 "/>
<path style=" stroke:none;fill-rule:nonzero;fill:rgb(100%,100%,100%);fill-opacity:1;" d="M 78.949219 42.214844 L 57.421875 42.214844 L 57.421875 63.761719 L 78.949219 63.761719 Z M 55.667969 38.699219 L 80.703125 38.699219 C 81.671875 38.699219 82.460938 39.488281 82.460938 40.457031 L 82.460938 65.519531 C 82.460938 66.488281 81.671875 67.277344 80.703125 67.277344 L 55.667969 67.277344 C 54.695312 67.277344 53.910156 66.488281 53.910156 65.519531 L 53.910156 40.457031 C 53.910156 39.488281 54.695312 38.699219 55.667969 38.699219 "/>
<path style=" stroke:none;fill-rule:nonzero;fill:rgb(100%,100%,100%);fill-opacity:1;" d="M 43.261719 45.128906 C 44.234375 45.128906 45.019531 44.34375 45.019531 43.371094 C 45.019531 42.398438 44.234375 41.613281 43.261719 41.613281 L 14.261719 41.613281 C 13.289062 41.613281 12.503906 42.398438 12.503906 43.371094 C 12.503906 44.34375 13.289062 45.128906 14.261719 45.128906 L 43.261719 45.128906 "/>
<path style=" stroke:none;fill-rule:nonzero;fill:rgb(100%,100%,100%);fill-opacity:1;" d="M 43.261719 55.15625 C 44.234375 55.15625 45.019531 54.371094 45.019531 53.398438 C 45.019531 52.429688 44.234375 51.640625 43.261719 51.640625 L 14.261719 51.640625 C 13.289062 51.640625 12.503906 52.429688 12.503906 53.398438 C 12.503906 54.371094 13.289062 55.15625 14.261719 55.15625 L 43.261719 55.15625 "/>
<path style=" stroke:none;fill-rule:nonzero;fill:rgb(100%,100%,100%);fill-opacity:1;" d="M 43.261719 65.183594 C 44.234375 65.183594 45.019531 64.398438 45.019531 63.429688 C 45.019531 62.457031 44.234375 61.667969 43.261719 61.667969 L 14.261719 61.667969 C 13.289062 61.667969 12.503906 62.457031 12.503906 63.429688 C 12.503906 64.398438 13.289062 65.183594 14.261719 65.183594 L 43.261719 65.183594 "/>
<path style=" stroke:none;fill-rule:nonzero;fill:rgb(100%,100%,100%);fill-opacity:1;" d="M 82.277344 81.546875 C 83.246094 81.546875 84.03125 80.761719 84.03125 79.789062 C 84.03125 78.820312 83.246094 78.03125 82.277344 78.03125 L 12.6875 78.03125 C 11.71875 78.03125 10.933594 78.820312 10.933594 79.789062 C 10.933594 80.761719 11.71875 81.546875 12.6875 81.546875 L 82.277344 81.546875 "/>
<path style=" stroke:none;fill-rule:nonzero;fill:rgb(100%,100%,100%);fill-opacity:1;" d="M 82.277344 94.742188 C 83.246094 94.742188 84.03125 93.957031 84.03125 92.984375 C 84.03125 92.011719 83.246094 91.226562 82.277344 91.226562 L 12.6875 91.226562 C 11.71875 91.226562 10.933594 92.011719 10.933594 92.984375 C 10.933594 93.957031 11.71875 94.742188 12.6875 94.742188 L 82.277344 94.742188 "/>
</g>
</svg>
