<?xml version="1.0" encoding="UTF-8"?>
<svg xmlns="http://www.w3.org/2000/svg" xmlns:xlink="http://www.w3.org/1999/xlink" width="112.5pt" height="112.499997pt" viewBox="0 0 112.5 112.499997" version="1.2">
<defs>
<clipPath id="clip1">
  <path d="M 49 58 L 92 58 L 92 100.382812 L 49 100.382812 Z M 49 58 "/>
</clipPath>
<clipPath id="clip2">
  <path d="M 20.757812 11.882812 L 79 11.882812 L 79 95 L 20.757812 95 Z M 20.757812 11.882812 "/>
</clipPath>
</defs>
<g id="surface1">
<g clip-path="url(#clip1)" clip-rule="nonzero">
<path style=" stroke:none;fill-rule:nonzero;fill:rgb(100%,100%,100%);fill-opacity:1;" d="M 90.855469 66.945312 L 82.742188 58.882812 C 81.757812 57.90625 80.167969 57.90625 79.1875 58.882812 L 55.632812 82.289062 C 55.578125 82.34375 55.539062 82.40625 55.488281 82.460938 C 55.445312 82.511719 55.402344 82.558594 55.367188 82.613281 C 55.261719 82.757812 55.175781 82.90625 55.105469 83.0625 C 55.101562 83.074219 55.09375 83.082031 55.085938 83.09375 L 55.082031 83.105469 C 55.082031 83.113281 55.078125 83.117188 55.074219 83.125 L 49.285156 96.921875 C 48.894531 97.859375 49.109375 98.933594 49.828125 99.652344 C 50.3125 100.128906 50.953125 100.382812 51.605469 100.382812 C 51.933594 100.382812 52.261719 100.320312 52.574219 100.191406 L 66.484375 94.429688 C 66.484375 94.429688 66.488281 94.425781 66.488281 94.425781 L 66.492188 94.421875 C 66.496094 94.421875 66.496094 94.421875 66.5 94.417969 C 66.667969 94.347656 66.828125 94.253906 66.980469 94.148438 C 67.027344 94.113281 67.070312 94.070312 67.121094 94.03125 C 67.179688 93.980469 67.246094 93.941406 67.300781 93.882812 L 90.855469 70.476562 C 91.835938 69.5 91.835938 67.917969 90.855469 66.945312 Z M 56.273438 93.246094 L 58.285156 88.457031 L 61.09375 91.25 Z M 65.523438 88.585938 L 60.960938 84.054688 L 80.964844 64.179688 L 85.523438 68.710938 Z M 65.523438 88.585938 "/>
</g>
<g clip-path="url(#clip2)" clip-rule="nonzero">
<path style=" stroke:none;fill-rule:nonzero;fill:rgb(100%,100%,100%);fill-opacity:1;" d="M 45.351562 89.703125 L 25.902344 89.703125 L 25.902344 16.878906 L 57.015625 16.878906 L 57.015625 32.339844 C 57.015625 33.71875 58.140625 34.835938 59.527344 34.835938 L 73.960938 34.835938 L 73.960938 52.324219 C 73.960938 53.707031 75.085938 54.824219 76.472656 54.824219 C 77.859375 54.824219 78.984375 53.703125 78.984375 52.324219 L 78.984375 32.339844 C 78.984375 32.28125 78.972656 32.226562 78.96875 32.171875 C 78.960938 32.078125 78.957031 31.980469 78.9375 31.890625 C 78.925781 31.8125 78.902344 31.738281 78.878906 31.660156 C 78.855469 31.582031 78.835938 31.503906 78.804688 31.421875 C 78.773438 31.34375 78.730469 31.269531 78.691406 31.195312 C 78.65625 31.128906 78.625 31.058594 78.582031 30.992188 C 78.53125 30.910156 78.46875 30.839844 78.40625 30.765625 C 78.371094 30.722656 78.34375 30.675781 78.304688 30.632812 L 61.363281 12.671875 C 61.355469 12.664062 61.34375 12.65625 61.335938 12.648438 C 61.265625 12.574219 61.183594 12.511719 61.105469 12.449219 C 61.058594 12.410156 61.011719 12.363281 60.957031 12.328125 C 60.882812 12.273438 60.800781 12.234375 60.722656 12.191406 C 60.65625 12.15625 60.597656 12.117188 60.527344 12.089844 C 60.453125 12.058594 60.375 12.039062 60.296875 12.011719 C 60.21875 11.988281 60.144531 11.960938 60.066406 11.941406 C 59.996094 11.925781 59.921875 11.921875 59.851562 11.914062 C 59.757812 11.902344 59.664062 11.886719 59.570312 11.882812 C 59.558594 11.886719 59.542969 11.882812 59.53125 11.882812 L 23.386719 11.882812 C 22 11.882812 20.875 13 20.875 14.378906 L 20.875 92.199219 C 20.875 93.578125 22 94.695312 23.386719 94.695312 L 45.351562 94.695312 C 46.742188 94.695312 47.867188 93.578125 47.867188 92.199219 C 47.867188 90.820312 46.742188 89.703125 45.351562 89.703125 Z M 62.042969 20.695312 L 70.671875 29.84375 L 62.042969 29.84375 Z M 62.042969 20.695312 "/>
</g>
</g>
</svg>
