<?xml version="1.0" encoding="UTF-8"?>
<svg xmlns="http://www.w3.org/2000/svg" xmlns:xlink="http://www.w3.org/1999/xlink" width="112.5pt" height="112.499997pt" viewBox="0 0 112.5 112.499997" version="1.2">
<g id="surface1">
<path style=" stroke:none;fill-rule:nonzero;fill:rgb(100%,100%,100%);fill-opacity:1;" d="M 86.890625 23.890625 L 11.253906 23.890625 L 11.253906 27.351562 L 101.246094 27.351562 L 101.246094 23.890625 Z M 86.890625 23.890625 "/>
<path style=" stroke:none;fill-rule:nonzero;fill:rgb(100%,100%,100%);fill-opacity:1;" d="M 86.890625 54.789062 L 11.253906 54.789062 L 11.253906 58.246094 L 101.246094 58.246094 L 101.246094 54.789062 Z M 86.890625 54.789062 "/>
<path style=" stroke:none;fill-rule:nonzero;fill:rgb(100%,100%,100%);fill-opacity:1;" d="M 86.890625 82.996094 L 11.253906 82.996094 L 11.253906 86.457031 L 101.246094 86.457031 L 101.246094 82.996094 Z M 86.890625 82.996094 "/>
<path style=" stroke:none;fill-rule:nonzero;fill:rgb(100%,100%,100%);fill-opacity:1;" d="M 47.535156 18.691406 C 47.097656 18.691406 46.664062 18.734375 46.234375 18.820312 C 45.804688 18.902344 45.390625 19.03125 44.984375 19.199219 C 44.582031 19.367188 44.195312 19.570312 43.832031 19.8125 C 43.46875 20.058594 43.132812 20.332031 42.824219 20.640625 C 42.515625 20.953125 42.238281 21.289062 41.996094 21.652344 C 41.753906 22.015625 41.546875 22.398438 41.378906 22.804688 C 41.210938 23.207031 41.085938 23.625 41 24.054688 C 40.914062 24.484375 40.871094 24.917969 40.871094 25.355469 C 40.871094 25.792969 40.914062 26.226562 41 26.652344 C 41.085938 27.082031 41.210938 27.5 41.378906 27.902344 C 41.546875 28.308594 41.753906 28.691406 41.996094 29.054688 C 42.238281 29.417969 42.515625 29.757812 42.824219 30.066406 C 43.132812 30.375 43.46875 30.652344 43.832031 30.894531 C 44.195312 31.136719 44.582031 31.34375 44.984375 31.511719 C 45.390625 31.675781 45.804688 31.804688 46.234375 31.890625 C 46.664062 31.972656 47.097656 32.015625 47.535156 32.015625 C 47.972656 32.015625 48.40625 31.972656 48.835938 31.890625 C 49.265625 31.804688 49.679688 31.675781 50.085938 31.511719 C 50.488281 31.34375 50.875 31.136719 51.238281 30.894531 C 51.601562 30.652344 51.9375 30.375 52.246094 30.066406 C 52.554688 29.757812 52.832031 29.417969 53.074219 29.054688 C 53.320312 28.691406 53.523438 28.308594 53.691406 27.902344 C 53.859375 27.5 53.984375 27.082031 54.070312 26.652344 C 54.15625 26.226562 54.199219 25.792969 54.199219 25.355469 C 54.199219 24.917969 54.15625 24.484375 54.070312 24.054688 C 53.984375 23.625 53.859375 23.207031 53.691406 22.804688 C 53.523438 22.398438 53.320312 22.015625 53.074219 21.652344 C 52.832031 21.289062 52.554688 20.953125 52.246094 20.640625 C 51.9375 20.332031 51.601562 20.058594 51.238281 19.8125 C 50.875 19.570312 50.488281 19.367188 50.085938 19.199219 C 49.679688 19.03125 49.265625 18.902344 48.835938 18.820312 C 48.40625 18.734375 47.972656 18.691406 47.535156 18.691406 Z M 47.535156 18.691406 "/>
<path style=" stroke:none;fill-rule:nonzero;fill:rgb(100%,100%,100%);fill-opacity:1;" d="M 83.59375 49.585938 C 83.15625 49.585938 82.722656 49.628906 82.292969 49.714844 C 81.863281 49.800781 81.445312 49.925781 81.042969 50.09375 C 80.636719 50.261719 80.253906 50.464844 79.890625 50.710938 C 79.527344 50.953125 79.191406 51.230469 78.882812 51.539062 C 78.570312 51.847656 78.296875 52.183594 78.050781 52.546875 C 77.808594 52.910156 77.605469 53.296875 77.4375 53.699219 C 77.269531 54.105469 77.144531 54.519531 77.058594 54.949219 C 76.972656 55.378906 76.929688 55.8125 76.929688 56.25 C 76.929688 56.6875 76.972656 57.121094 77.058594 57.550781 C 77.144531 57.980469 77.269531 58.394531 77.4375 58.800781 C 77.605469 59.203125 77.808594 59.589844 78.050781 59.953125 C 78.296875 60.316406 78.570312 60.652344 78.882812 60.960938 C 79.191406 61.269531 79.527344 61.546875 79.890625 61.789062 C 80.253906 62.035156 80.636719 62.238281 81.042969 62.40625 C 81.445312 62.574219 81.863281 62.699219 82.292969 62.785156 C 82.722656 62.871094 83.15625 62.914062 83.59375 62.914062 C 84.03125 62.914062 84.464844 62.871094 84.890625 62.785156 C 85.320312 62.699219 85.738281 62.574219 86.140625 62.40625 C 86.546875 62.238281 86.929688 62.035156 87.292969 61.789062 C 87.65625 61.546875 87.996094 61.269531 88.304688 60.960938 C 88.613281 60.652344 88.890625 60.316406 89.132812 59.953125 C 89.375 59.589844 89.582031 59.203125 89.75 58.800781 C 89.914062 58.394531 90.042969 57.980469 90.128906 57.550781 C 90.214844 57.121094 90.253906 56.6875 90.253906 56.25 C 90.253906 55.8125 90.214844 55.378906 90.128906 54.949219 C 90.042969 54.519531 89.914062 54.105469 89.75 53.699219 C 89.582031 53.296875 89.375 52.910156 89.132812 52.546875 C 88.890625 52.183594 88.613281 51.847656 88.304688 51.539062 C 87.996094 51.230469 87.65625 50.953125 87.292969 50.710938 C 86.929688 50.464844 86.546875 50.261719 86.140625 50.09375 C 85.738281 49.925781 85.320312 49.800781 84.890625 49.714844 C 84.464844 49.628906 84.03125 49.585938 83.59375 49.585938 Z M 83.59375 49.585938 "/>
<path style=" stroke:none;fill-rule:nonzero;fill:rgb(100%,100%,100%);fill-opacity:1;" d="M 28.945312 76.285156 C 28.507812 76.285156 28.074219 76.328125 27.644531 76.414062 C 27.214844 76.5 26.800781 76.625 26.394531 76.792969 C 25.992188 76.960938 25.605469 77.164062 25.242188 77.40625 C 24.878906 77.652344 24.542969 77.925781 24.234375 78.238281 C 23.921875 78.546875 23.648438 78.882812 23.402344 79.246094 C 23.160156 79.609375 22.957031 79.996094 22.789062 80.398438 C 22.621094 80.800781 22.496094 81.21875 22.410156 81.648438 C 22.324219 82.078125 22.28125 82.511719 22.28125 82.949219 C 22.28125 83.386719 22.324219 83.820312 22.410156 84.25 C 22.496094 84.675781 22.621094 85.09375 22.789062 85.5 C 22.957031 85.902344 23.160156 86.285156 23.402344 86.648438 C 23.648438 87.015625 23.921875 87.351562 24.234375 87.660156 C 24.542969 87.96875 24.878906 88.246094 25.242188 88.488281 C 25.605469 88.730469 25.992188 88.9375 26.394531 89.105469 C 26.800781 89.273438 27.214844 89.398438 27.644531 89.484375 C 28.074219 89.570312 28.507812 89.613281 28.945312 89.613281 C 29.382812 89.613281 29.816406 89.570312 30.246094 89.484375 C 30.671875 89.398438 31.089844 89.273438 31.496094 89.105469 C 31.898438 88.9375 32.28125 88.730469 32.644531 88.488281 C 33.011719 88.246094 33.347656 87.96875 33.65625 87.660156 C 33.964844 87.351562 34.242188 87.015625 34.484375 86.648438 C 34.726562 86.285156 34.933594 85.902344 35.101562 85.5 C 35.269531 85.09375 35.394531 84.675781 35.480469 84.25 C 35.566406 83.820312 35.609375 83.386719 35.609375 82.949219 C 35.609375 82.511719 35.566406 82.078125 35.480469 81.648438 C 35.394531 81.21875 35.269531 80.800781 35.101562 80.398438 C 34.933594 79.996094 34.726562 79.609375 34.484375 79.246094 C 34.242188 78.882812 33.964844 78.546875 33.65625 78.238281 C 33.347656 77.925781 33.011719 77.652344 32.644531 77.40625 C 32.28125 77.164062 31.898438 76.960938 31.496094 76.792969 C 31.089844 76.625 30.671875 76.5 30.246094 76.414062 C 29.816406 76.328125 29.382812 76.285156 28.945312 76.285156 Z M 28.945312 76.285156 "/>
</g>
</svg>
