<?xml version="1.0" encoding="UTF-8"?>
<svg xmlns="http://www.w3.org/2000/svg" xmlns:xlink="http://www.w3.org/1999/xlink" width="112.5pt" height="112.499997pt" viewBox="0 0 112.5 112.499997" version="1.2">
<defs>
<clipPath id="clip1">
  <path d="M 14.230469 11.25 L 98.230469 11.25 L 98.230469 101.25 L 14.230469 101.25 Z M 14.230469 11.25 "/>
</clipPath>
</defs>
<g id="surface1">
<g clip-path="url(#clip1)" clip-rule="nonzero">
<path style=" stroke:none;fill-rule:nonzero;fill:rgb(100%,100%,100%);fill-opacity:1;" d="M 97.585938 54.925781 L 19.359375 11.800781 C 18.625 11.398438 17.769531 11.300781 16.964844 11.539062 C 16.15625 11.769531 15.492188 12.304688 15.085938 13.039062 C 14.683594 13.773438 14.585938 14.65625 14.828125 15.457031 L 27.007812 56.25 L 14.828125 97.042969 C 14.332031 98.703125 15.28125 100.457031 16.945312 100.957031 C 17.238281 101.046875 17.535156 101.089844 17.835938 101.089844 C 18.363281 101.089844 18.890625 100.960938 19.359375 100.699219 L 97.585938 57.574219 C 98.070312 57.308594 98.371094 56.800781 98.371094 56.25 C 98.371094 55.699219 98.070312 55.195312 97.585938 54.925781 Z M 17.898438 98.050781 L 17.722656 97.910156 L 29.710938 57.761719 L 48.796875 57.761719 C 49.628906 57.761719 50.308594 57.085938 50.308594 56.25 C 50.308594 55.414062 49.628906 54.738281 48.796875 54.738281 L 29.710938 54.738281 L 17.722656 14.59375 C 17.722656 14.59375 17.898438 14.453125 17.898438 14.449219 L 93.726562 56.25 Z M 17.898438 98.050781 "/>
</g>
</g>
</svg>
