<?xml version="1.0" encoding="UTF-8"?>
<svg xmlns="http://www.w3.org/2000/svg" xmlns:xlink="http://www.w3.org/1999/xlink" width="112.5pt" height="112.499997pt" viewBox="0 0 112.5 112.499997" version="1.2">
<defs>
<clipPath id="clip1">
  <path d="M 12.101562 17.15625 L 100.601562 17.15625 L 100.601562 95.15625 L 12.101562 95.15625 Z M 12.101562 17.15625 "/>
</clipPath>
<clipPath id="clip2">
  <path d="M 14.617188 18.570312 L 97.867188 18.570312 L 97.867188 93.570312 L 14.617188 93.570312 Z M 14.617188 18.570312 "/>
</clipPath>
</defs>
<g id="surface1">
<g clip-path="url(#clip1)" clip-rule="nonzero">
<path style=" stroke:none;fill-rule:nonzero;fill:rgb(100%,8.628845%,8.628845%);fill-opacity:1;" d="M 56.351562 95.15625 L 55.414062 94.523438 C 55.304688 94.453125 44.53125 87.125 33.914062 77 C 27.652344 71.011719 22.644531 65.234375 19.035156 59.8125 C 14.453125 52.871094 12.117188 46.445312 12.117188 40.738281 C 12.117188 27.742188 22.75 17.15625 35.808594 17.15625 C 40.65625 17.15625 45.34375 18.636719 49.34375 21.453125 C 52.246094 23.496094 54.617188 26.105469 56.351562 29.097656 C 58.082031 26.085938 60.453125 23.480469 63.355469 21.453125 C 67.355469 18.636719 72.042969 17.15625 76.890625 17.15625 C 89.949219 17.15625 100.582031 27.742188 100.582031 40.738281 L 100.582031 40.757812 C 100.53125 46.425781 98.175781 52.800781 93.578125 59.722656 C 89.96875 65.148438 84.976562 70.925781 78.714844 76.929688 C 68.117188 87.089844 57.394531 94.453125 57.289062 94.523438 Z M 35.808594 20.449219 C 24.574219 20.449219 15.425781 29.554688 15.425781 40.738281 C 15.425781 45.792969 17.566406 51.585938 21.796875 57.960938 C 25.246094 63.175781 30.09375 68.777344 36.179688 74.585938 C 44.796875 82.8125 53.535156 89.167969 56.351562 91.140625 C 59.164062 89.152344 67.851562 82.757812 76.449219 74.515625 C 82.519531 68.6875 87.347656 63.105469 90.816406 57.890625 C 95.042969 51.515625 97.222656 45.757812 97.257812 40.738281 C 97.257812 29.554688 88.109375 20.46875 76.875 20.46875 C 68.539062 20.46875 60.914062 25.714844 57.871094 33.535156 L 56.332031 37.515625 L 54.8125 33.535156 C 51.765625 25.714844 44.140625 20.449219 35.808594 20.449219 Z M 35.808594 20.449219 "/>
</g>
<g clip-path="url(#clip2)" clip-rule="nonzero">
<path style=" stroke:none;fill-rule:nonzero;fill:rgb(100%,8.628845%,8.628845%);fill-opacity:1;" d="M 97.585938 37.195312 C 92.894531 13.175781 63.492188 12.773438 56.242188 35.230469 C 48.992188 12.777344 19.585938 13.175781 14.898438 37.195312 C 10.640625 58.988281 56.242188 93.371094 56.242188 93.371094 C 56.242188 93.371094 101.839844 58.988281 97.585938 37.195312 Z M 97.585938 37.195312 "/>
</g>
</g>
</svg>
