<?xml version="1.0" encoding="UTF-8"?>
<svg xmlns="http://www.w3.org/2000/svg" xmlns:xlink="http://www.w3.org/1999/xlink" width="112.5pt" height="112.499997pt" viewBox="0 0 112.5 112.499997" version="1.2">
<g id="surface1">
<path style=" stroke:none;fill-rule:nonzero;fill:rgb(100%,100%,100%);fill-opacity:1;" d="M 100.109375 51.964844 L 89.089844 43.710938 C 88.558594 43.316406 87.980469 43.117188 87.390625 43.117188 C 86.128906 43.117188 85.199219 44.089844 85.199219 45.445312 L 85.199219 50.367188 L 15.003906 50.367188 C 12.921875 50.414062 11.25 52.117188 11.25 54.214844 C 11.25 56.3125 12.921875 58.011719 15.003906 58.058594 L 85.199219 58.058594 L 85.199219 62.984375 C 85.199219 64.335938 86.128906 65.308594 87.390625 65.308594 C 87.980469 65.308594 88.558594 65.09375 89.089844 64.699219 L 100.109375 56.460938 C 100.871094 55.886719 101.308594 55.066406 101.308594 54.214844 C 101.308594 53.347656 100.871094 52.542969 100.109375 51.964844 Z M 100.109375 51.964844 "/>
</g>
</svg>
