<?xml version="1.0" standalone="no"?>
<!DOCTYPE svg PUBLIC "-//W3C//DTD SVG 20010904//EN"
 "http://www.w3.org/TR/2001/REC-SVG-20010904/DTD/svg10.dtd">
<svg version="1.0" xmlns="http://www.w3.org/2000/svg"
 width="150.000000pt" height="150.000000pt" viewBox="0 0 150.000000 150.000000"
 preserveAspectRatio="xMidYMid meet">
<metadata>
Created by potrace 1.16, written by Peter Selinger 2001-2019
</metadata>
<g transform="translate(0.000000,150.000000) scale(0.100000,-0.100000)"
fill="#000000" stroke="none">
<path d="M675 1259 c-205 -25 -376 -178 -431 -384 -19 -69 -18 -209 2 -276 45
-153 165 -287 306 -341 72 -27 73 -26 70 42 l-4 60 -47 0 c-59 0 -87 20 -113
79 -10 25 -27 54 -35 64 -32 34 8 17 51 -23 41 -38 47 -40 105 -40 33 0 61 4
61 10 0 5 14 25 30 44 34 38 33 41 -27 51 -23 3 -65 21 -94 38 -88 53 -121
146 -84 234 9 21 22 44 30 53 10 12 11 26 3 65 -11 56 1 105 26 105 25 0 70
-20 92 -41 20 -18 26 -19 92 -8 55 9 85 9 132 0 59 -12 62 -11 90 13 41 34 90
44 107 20 15 -21 16 -44 3 -99 -7 -30 -6 -43 5 -55 8 -9 21 -32 30 -53 37 -88
4 -181 -84 -234 -29 -17 -71 -35 -94 -38 -59 -10 -62 -14 -33 -44 40 -41 56
-93 56 -176 0 -41 3 -75 6 -75 3 0 31 12 62 27 35 17 85 55 128 98 106 105
154 218 154 365 0 323 -270 559 -595 519z"/>
</g>
</svg>
