<?xml version="1.0" encoding="UTF-8"?>
<svg xmlns="http://www.w3.org/2000/svg" xmlns:xlink="http://www.w3.org/1999/xlink" width="112.5pt" height="112.499997pt" viewBox="0 0 112.5 112.499997" version="1.2">
<defs>
<clipPath id="clip1">
  <path d="M 12.558594 29 L 44 29 L 44 83 L 12.558594 83 Z M 12.558594 29 "/>
</clipPath>
<clipPath id="clip2">
  <path d="M 99.585938 48.128906 L 57.609375 48.128906 L 57.609375 65.386719 L 81.769531 65.386719 C 79.519531 76.347656 70.097656 82.640625 57.609375 82.640625 C 42.863281 82.640625 30.988281 70.867188 30.988281 56.25 C 30.988281 41.632812 42.863281 29.855469 57.609375 29.855469 C 63.957031 29.855469 69.6875 32.089844 74.195312 35.746094 L 87.296875 22.75 C 79.3125 15.847656 69.074219 11.585938 57.609375 11.585938 C 32.625 11.585938 12.558594 31.480469 12.558594 56.25 C 12.558594 81.019531 32.625 100.914062 57.609375 100.914062 C 80.132812 100.914062 100.609375 84.671875 100.609375 56.25 C 100.609375 53.609375 100.199219 50.769531 99.585938 48.128906 Z M 99.585938 48.128906 "/>
</clipPath>
<clipPath id="clip3">
  <path d="M 12.558594 11.25 L 100.308594 11.25 L 100.308594 57 L 12.558594 57 Z M 12.558594 11.25 "/>
</clipPath>
<clipPath id="clip4">
  <path d="M 99.585938 48.128906 L 57.609375 48.128906 L 57.609375 65.386719 L 81.769531 65.386719 C 79.519531 76.347656 70.097656 82.640625 57.609375 82.640625 C 42.863281 82.640625 30.988281 70.867188 30.988281 56.25 C 30.988281 41.632812 42.863281 29.855469 57.609375 29.855469 C 63.957031 29.855469 69.6875 32.089844 74.195312 35.746094 L 87.296875 22.75 C 79.3125 15.847656 69.074219 11.585938 57.609375 11.585938 C 32.625 11.585938 12.558594 31.480469 12.558594 56.25 C 12.558594 81.019531 32.625 100.914062 57.609375 100.914062 C 80.132812 100.914062 100.609375 84.671875 100.609375 56.25 C 100.609375 53.609375 100.199219 50.769531 99.585938 48.128906 Z M 99.585938 48.128906 "/>
</clipPath>
<clipPath id="clip5">
  <path d="M 12.558594 11.25 L 100.308594 11.25 L 100.308594 100.914062 L 12.558594 100.914062 Z M 12.558594 11.25 "/>
</clipPath>
<clipPath id="clip6">
  <path d="M 99.585938 48.128906 L 57.609375 48.128906 L 57.609375 65.386719 L 81.769531 65.386719 C 79.519531 76.347656 70.097656 82.640625 57.609375 82.640625 C 42.863281 82.640625 30.988281 70.867188 30.988281 56.25 C 30.988281 41.632812 42.863281 29.855469 57.609375 29.855469 C 63.957031 29.855469 69.6875 32.089844 74.195312 35.746094 L 87.296875 22.75 C 79.3125 15.847656 69.074219 11.585938 57.609375 11.585938 C 32.625 11.585938 12.558594 31.480469 12.558594 56.25 C 12.558594 81.019531 32.625 100.914062 57.609375 100.914062 C 80.132812 100.914062 100.609375 84.671875 100.609375 56.25 C 100.609375 53.609375 100.199219 50.769531 99.585938 48.128906 Z M 99.585938 48.128906 "/>
</clipPath>
<clipPath id="clip7">
  <path d="M 35 29 L 100.308594 29 L 100.308594 100.914062 L 35 100.914062 Z M 35 29 "/>
</clipPath>
<clipPath id="clip8">
  <path d="M 99.585938 48.128906 L 57.609375 48.128906 L 57.609375 65.386719 L 81.769531 65.386719 C 79.519531 76.347656 70.097656 82.640625 57.609375 82.640625 C 42.863281 82.640625 30.988281 70.867188 30.988281 56.25 C 30.988281 41.632812 42.863281 29.855469 57.609375 29.855469 C 63.957031 29.855469 69.6875 32.089844 74.195312 35.746094 L 87.296875 22.75 C 79.3125 15.847656 69.074219 11.585938 57.609375 11.585938 C 32.625 11.585938 12.558594 31.480469 12.558594 56.25 C 12.558594 81.019531 32.625 100.914062 57.609375 100.914062 C 80.132812 100.914062 100.609375 84.671875 100.609375 56.25 C 100.609375 53.609375 100.199219 50.769531 99.585938 48.128906 Z M 99.585938 48.128906 "/>
</clipPath>
</defs>
<g id="surface1">
<g clip-path="url(#clip1)" clip-rule="nonzero">
<g clip-path="url(#clip2)" clip-rule="nonzero">
<path style=" stroke:none;fill-rule:nonzero;fill:rgb(98.429871%,73.728943%,1.959229%);fill-opacity:1;" d="M 8.464844 82.640625 L 8.464844 29.855469 L 43.273438 56.25 Z M 8.464844 82.640625 "/>
</g>
</g>
<g clip-path="url(#clip3)" clip-rule="nonzero">
<g clip-path="url(#clip4)" clip-rule="nonzero">
<path style=" stroke:none;fill-rule:nonzero;fill:rgb(91.758728%,26.269531%,20.779419%);fill-opacity:1;" d="M 8.464844 29.855469 L 43.273438 56.25 L 57.609375 43.867188 L 106.75 35.949219 L 106.75 7.523438 L 8.464844 7.523438 Z M 8.464844 29.855469 "/>
</g>
</g>
<g clip-path="url(#clip5)" clip-rule="nonzero">
<g clip-path="url(#clip6)" clip-rule="nonzero">
<path style=" stroke:none;fill-rule:nonzero;fill:rgb(20.388794%,65.879822%,32.548523%);fill-opacity:1;" d="M 8.464844 82.640625 L 69.894531 35.949219 L 86.070312 37.976562 L 106.75 7.523438 L 106.75 104.972656 L 8.464844 104.972656 Z M 8.464844 82.640625 "/>
</g>
</g>
<g clip-path="url(#clip7)" clip-rule="nonzero">
<g clip-path="url(#clip8)" clip-rule="nonzero">
<path style=" stroke:none;fill-rule:nonzero;fill:rgb(25.878906%,52.159119%,95.689392%);fill-opacity:1;" d="M 106.75 104.972656 L 43.273438 56.25 L 35.082031 50.160156 L 106.75 29.855469 Z M 106.75 104.972656 "/>
</g>
</g>
</g>
</svg>
